<mxfile host="app.diagrams.net" agent="Mozilla/5.0 (Macintosh; Intel Mac OS X 10_15_7) AppleWebKit/537.36 (KHTML, like Gecko) Chrome/129.0.0.0 Safari/537.36" version="24.7.17">
  <diagram name="페이지-1" id="Mf7tYMGVgN6kYsE0G8Oj">
    <mxGraphModel dx="703" dy="446" grid="1" gridSize="10" guides="1" tooltips="1" connect="1" arrows="1" fold="1" page="1" pageScale="1" pageWidth="827" pageHeight="1169" math="0" shadow="0">
      <root>
        <mxCell id="0" />
        <mxCell id="1" parent="0" />
        <mxCell id="6Ko0oAQqLnhYjmOpt7fq-1" value="모바일 앱" style="whiteSpace=wrap;html=1;fontSize=16;rounded=1;" vertex="1" parent="1">
          <mxGeometry x="120" y="200" width="120" height="200" as="geometry" />
        </mxCell>
        <mxCell id="6Ko0oAQqLnhYjmOpt7fq-3" value="Ai 모델 서버" style="whiteSpace=wrap;html=1;fontSize=16;rounded=1;" vertex="1" parent="1">
          <mxGeometry x="320" y="200" width="120" height="200" as="geometry" />
        </mxCell>
        <mxCell id="6Ko0oAQqLnhYjmOpt7fq-4" value="아두이노" style="whiteSpace=wrap;html=1;fontSize=16;rounded=1;" vertex="1" parent="1">
          <mxGeometry x="520" y="200" width="120" height="200" as="geometry" />
        </mxCell>
        <mxCell id="6Ko0oAQqLnhYjmOpt7fq-5" value="카메라" style="rounded=1;whiteSpace=wrap;html=1;fontSize=23;" vertex="1" parent="1">
          <mxGeometry x="720" y="260" width="120" height="60" as="geometry" />
        </mxCell>
        <mxCell id="6Ko0oAQqLnhYjmOpt7fq-8" value="" style="shape=flexArrow;endArrow=classic;html=1;rounded=0;entryX=0;entryY=0.75;entryDx=0;entryDy=0;exitX=1;exitY=0.75;exitDx=0;exitDy=0;" edge="1" parent="1" source="6Ko0oAQqLnhYjmOpt7fq-3" target="6Ko0oAQqLnhYjmOpt7fq-4">
          <mxGeometry width="50" height="50" relative="1" as="geometry">
            <mxPoint x="440" y="360" as="sourcePoint" />
            <mxPoint x="520" y="363" as="targetPoint" />
          </mxGeometry>
        </mxCell>
        <mxCell id="6Ko0oAQqLnhYjmOpt7fq-9" value="" style="shape=flexArrow;endArrow=classic;html=1;rounded=0;exitX=0;exitY=0.5;exitDx=0;exitDy=0;" edge="1" parent="1" source="6Ko0oAQqLnhYjmOpt7fq-5">
          <mxGeometry width="50" height="50" relative="1" as="geometry">
            <mxPoint x="680" y="290" as="sourcePoint" />
            <mxPoint x="641" y="292" as="targetPoint" />
          </mxGeometry>
        </mxCell>
        <mxCell id="6Ko0oAQqLnhYjmOpt7fq-12" value="" style="shape=flexArrow;endArrow=classic;html=1;rounded=0;entryX=1;entryY=0.5;entryDx=0;entryDy=0;exitX=0;exitY=0.5;exitDx=0;exitDy=0;" edge="1" parent="1" source="6Ko0oAQqLnhYjmOpt7fq-3" target="6Ko0oAQqLnhYjmOpt7fq-1">
          <mxGeometry width="50" height="50" relative="1" as="geometry">
            <mxPoint x="260" y="350" as="sourcePoint" />
            <mxPoint x="310" y="300" as="targetPoint" />
          </mxGeometry>
        </mxCell>
        <mxCell id="6Ko0oAQqLnhYjmOpt7fq-15" value="" style="shape=flexArrow;endArrow=classic;html=1;rounded=0;entryX=1;entryY=0.5;entryDx=0;entryDy=0;exitX=0;exitY=0.5;exitDx=0;exitDy=0;" edge="1" parent="1">
          <mxGeometry width="50" height="50" relative="1" as="geometry">
            <mxPoint x="520" y="260" as="sourcePoint" />
            <mxPoint x="440" y="260" as="targetPoint" />
          </mxGeometry>
        </mxCell>
        <mxCell id="6Ko0oAQqLnhYjmOpt7fq-18" value="결과값 전송" style="text;strokeColor=none;fillColor=none;html=1;fontSize=12;fontStyle=0;verticalAlign=middle;align=center;" vertex="1" parent="1">
          <mxGeometry x="230" y="250" width="100" height="40" as="geometry" />
        </mxCell>
        <mxCell id="6Ko0oAQqLnhYjmOpt7fq-19" value="입력값 전송" style="text;strokeColor=none;fillColor=none;html=1;fontSize=12;fontStyle=0;verticalAlign=middle;align=center;" vertex="1" parent="1">
          <mxGeometry x="430" y="210" width="100" height="40" as="geometry" />
        </mxCell>
        <mxCell id="6Ko0oAQqLnhYjmOpt7fq-20" value="결과값 전송" style="text;strokeColor=none;fillColor=none;html=1;fontSize=12;fontStyle=0;verticalAlign=middle;align=center;" vertex="1" parent="1">
          <mxGeometry x="430" y="300" width="100" height="40" as="geometry" />
        </mxCell>
        <mxCell id="6Ko0oAQqLnhYjmOpt7fq-21" value="얼굴 이미지 전송" style="text;strokeColor=none;fillColor=none;html=1;fontSize=12;fontStyle=0;verticalAlign=middle;align=center;" vertex="1" parent="1">
          <mxGeometry x="630" y="250" width="100" height="40" as="geometry" />
        </mxCell>
      </root>
    </mxGraphModel>
  </diagram>
</mxfile>
